PathFileType	4	(X/Y/Z)	Patient4_TMGait_0pt4_02_right_34.trc.trc
DataRate	CameraRate	NumFrames	NumMarkers	Units	OrigDataRate	OrigDataStartFrame	OrigNumFrames
77.348066298343	77.348066298343	4	33	mm	77.348066298343	18	       141
Frame#	Time	Sacral			L.Shoulder			Chest			R.Shoulder			Neck			R.ASIS			L.ASIS			R.Thigh.Superior			R.Thigh.Lateral			R.Thigh.Inferior			R.Patella			L.Thigh.Superior			L.Thigh.Lateral			L.Thigh.Inferior			L.Patella			L.Shank.Superior			L.Shank.Lateral			L.Shank.Inferior			R.Shank.Superior			R.Shank.Lateral			R.Shank.Inferior			R.Heel			R.Midfoot.Superior			R.Midfoot.Lateral			R.Toe			L.Heel			L.Midfoot.Lateral			L.Midfoot.Superior			L.Toe			L.Elbow			L.Wrist			R.Elbow			R.Wrist			
		X1	Y1	Z1	X2	Y2	Z2	X3	Y3	Z3	X4	Y4	Z4	X5	Y5	Z5	X6	Y6	Z6	X7	Y7	Z7	X8	Y8	Z8	X9	Y9	Z9	X10	Y10	Z10	X11	Y11	Z11	X12	Y12	Z12	X13	Y13	Z13	X14	Y14	Z14	X15	Y15	Z15	X16	Y16	Z16	X17	Y17	Z17	X18	Y18	Z18	X19	Y19	Z19	X20	Y20	Z20	X21	Y21	Z21	X22	Y22	Z22	X23	Y23	Z23	X24	Y24	Z24	X25	Y25	Z25	X26	Y26	Z26	X27	Y27	Z27	X28	Y28	Z28	X29	Y29	Z29	X30	Y30	Z30	X31	Y31	Z31	X32	Y32	Z32	X33	Y33	Z33	

18	45.059785714286	826.453286559315	1010.540992104328	412.538254102603	1041.209911991576	1436.036721173127	245.188412783916	1118.381609597432	1364.778597697488	418.480305918769	1014.349536318212	1439.561904598635	580.283704908382	1001.323860086125	1497.989549339070	399.534636477102	1045.711557202586	948.895262113201	550.950549169646	1051.890332121253	961.551312243760	274.533488270937	1111.187899355814	765.438150077031	526.761940107250	1061.239586967236	649.977466624704	603.721426995570	1145.482700410436	603.330210961448	523.747317745401	1174.193515243956	520.799439470656	543.593299695801	1063.874911379925	736.278945025325	304.481786339346	954.745470994448	635.752167702305	239.751397027053	1019.305764448074	546.532281320551	305.377983369385	1007.643583606314	481.471737913235	315.361607749245	978.214334104314	413.541766915977	307.455744274665	882.516144970490	304.298105100208	255.477929793937	923.041523926871	190.741636364053	330.701123741297	1153.961197772038	435.084305600748	557.393790082071	1096.994819114359	327.181463543363	627.615214643381	1159.387888923865	235.366596051998	576.769194401567	1056.648969151621	52.941902379663	559.715317071695	1224.239849716542	116.275667444325	587.451055194904	1144.103335445568	48.558282799688	629.786327415060	1348.509896517789	74.950591319587	611.807651739759	788.928133779415	39.663319586849	375.925414235915	861.948416633944	34.739057220314	294.752856598843	945.925714028385	95.170285234082	321.003912659526	1074.448306146719	41.455679613092	292.407313639819	1113.758123667787	1116.012743672888	84.521825085128	1365.639572144069	1051.177480755466	97.314658536264	858.537743517158	1127.194552710938	675.994795102900	821.307491510351	868.542105571667	681.219492485968	
19	45.072714285714	827.871680695826	1009.547414507834	414.008176588330	1041.668424610186	1435.084622166284	246.758575454549	1118.853028406427	1364.246981595324	420.195898111966	1014.631182007491	1439.100489760825	581.831075145223	1001.579078798229	1497.218770596270	401.041902300234	1046.899471658644	947.619162285234	552.714672436660	1053.372008891768	961.019186016827	276.171973517116	1110.636884361590	762.725793324458	528.913580522529	1058.454567197881	647.212703882618	604.498735550885	1143.076692823297	600.436146656390	524.997548229122	1170.725086613031	518.788129125246	543.622906439913	1063.570809453716	735.208241407615	305.656991923999	953.316658610744	635.644113017642	240.601629976225	1016.892687957910	545.798787315626	306.095628652703	1004.797053103484	480.744021285426	315.851672692542	974.794246495742	413.147301382341	307.898067629445	878.330140485101	304.542682663942	255.749974616164	918.388152437701	190.605663372753	330.765328797753	1151.825953376126	433.002268704658	557.007677820844	1095.921529897760	323.829325694904	626.000040214721	1160.070068447870	233.243274562841	575.031648677449	1059.915995107456	50.128899324959	556.448050397958	1226.911302862113	114.437229462287	585.175447478692	1147.021772753388	46.205805340016	626.848230859737	1351.305077100433	73.683617218745	609.567028711140	783.705306017329	39.708411803935	375.881349737328	856.723164479439	34.748394955778	294.740711067230	940.718419581532	95.152868812542	320.977030677243	1069.206114846637	41.387780716315	292.399537160962	1113.684712248585	1114.666678852486	86.591637912892	1365.876723178400	1051.745838919706	99.475376743523	856.527596834030	1128.445775713696	677.607476143885	818.129242442640	869.850300323183	682.323944563510	
20	45.085642857143	829.463877261897	1008.393438175080	415.764663376803	1041.888048798262	1434.083229684919	248.470997557230	1119.252643502761	1363.755751871383	422.018452849533	1014.840998994350	1438.548140452142	583.553840210232	1001.658259801534	1496.377526579231	402.718000796306	1048.363725130860	946.282572250027	554.608521864998	1055.008939539313	960.451787122736	277.981502851318	1110.778009583017	760.145852077362	531.136826827235	1056.270549405974	644.418239763257	605.036050613669	1141.379417592669	597.743445654973	526.084233270781	1167.794421284255	516.622688266633	543.409893088092	1063.443105966896	734.087429912025	307.016360356914	952.115156111686	635.495476181115	241.617719131854	1014.716886712427	545.019926668135	306.977136810314	1002.227226164478	479.931784385043	316.489940507081	971.571626663250	412.682612388892	308.469672204696	874.266512281737	304.802137087004	256.139676593561	913.795083962148	190.438607170288	330.891925706056	1149.656997843277	430.577220167694	556.352447630584	1093.986313064258	320.612989693197	624.061449077549	1159.124382726731	230.826574194874	573.004996148845	1060.164019884743	47.943671948304	552.979162476135	1226.915422374059	112.260742065424	582.782467129484	1146.828916417802	44.101202325017	623.795869227291	1351.134384361926	71.348930799887	607.271060367546	778.474216071444	39.736971309398	375.837087008689	851.496811641842	34.757311298094	294.734579004414	935.503915390275	95.144478308721	320.968644224935	1063.960671359646	41.318714154771	292.388601869074	1113.203651587861	1113.110384279175	88.922688969924	1365.574706782269	1051.315303007813	101.690880375944	855.394548616712	1129.041666344945	679.443621234548	816.621818717650	870.365524525525	683.735469082629	
21	45.098571428571	831.201799305143	1007.106740516627	417.785079865989	1041.898457746386	1433.046961606343	250.333391043303	1119.599738956130	1363.307615095957	423.957486914416	1014.990206955176	1437.904578501122	585.461225157618	1001.586173013839	1495.477124566806	404.570325886691	1050.087291938315	944.908093907321	556.613363503530	1056.781408939483	959.853218430477	279.949925020285	1111.615888896190	757.719149509739	533.362771142261	1054.733164574793	641.674421694860	605.347508052750	1140.387596454930	595.302210415414	526.973977783153	1165.432093861905	514.361933225758	542.934528922741	1063.503671583840	732.928541359332	308.531516647743	951.153584966543	635.301797528876	242.798363355819	1012.807190275425	544.194989601424	308.019802463093	999.972542112807	479.026008185974	317.279171530511	968.580633741369	412.136897713228	309.176534308550	870.352648621015	305.076815308957	256.656608409384	909.272779706967	190.237446912177	331.086364173399	1147.570835601237	427.888324883208	555.469121817824	1091.468521760179	317.558288896191	621.975178115632	1156.856040271229	228.151256976250	570.803444238283	1057.825822285425	46.238416677316	549.562166317328	1224.641440473778	109.837449472075	580.398083613702	1144.017366498961	42.238732383452	620.844090364521	1348.489712867070	68.224806686787	605.036123874663	773.235112341014	39.758853022044	375.790621729408	846.272708611185	34.768406579195	294.735004083505	930.288049591078	95.148265070908	320.978327299078	1058.718017650502	41.242175497202	292.372855333509	1112.297794496647	1111.355399383344	91.500296906723	1364.729189258048	1049.915236764377	103.945923490298	855.160830821738	1128.943713481754	681.505688956251	816.775779816530	870.069743669363	685.463885374379	
